<?xml version="1.0" standalone="no"?><!DOCTYPE svg PUBLIC "-//W3C//DTD SVG 1.1//EN" "http://www.w3.org/Graphics/SVG/1.1/DTD/svg11.dtd"><svg t="1691550789035" class="icon" viewBox="0 0 1025 1024" version="1.1" xmlns="http://www.w3.org/2000/svg" p-id="769" xmlns:xlink="http://www.w3.org/1999/xlink" width="32.03125" height="32"><path d="M638.590591 862.558559c-32.800801-13.837838-62.014014-34.338338-88.152153-61.501502 57.913914-18.962963 105.577578-46.638639 142.990991-82.514514s67.139139-76.876877 88.664665-123.515516c21.525526-46.638639 37.925926-100.452452 48.688689-161.441441 21.013013-120.952953 9.225225-214.23023-35.875876-280.344345-45.101101-66.114114-112.752753-98.914915-201.92993-98.914915-38.950951 0-75.851852 6.15015-111.215215 18.450451-59.963964 13.325325-114.29029 43.563564-162.466467 90.714714-68.676677 66.114114-113.265265 159.903904-134.79079 281.881882-13.837838 80.464464-14.35035 147.091091-0.512513 199.87988 13.325325 52.788789 37.413413 94.814815 71.751752 125.565566s89.68969 49.201201 166.566566 56.376376c54.326326 63.039039 101.477477 103.527528 142.990991 121.465466 41.001001 17.425425 84.052052 26.138138 129.665666 26.138138 31.775776 0 63.551552-5.125125 94.814815-14.862863v-1.025025c11.787788-2.562563 24.088088-5.125125 35.875876-9.225225l14.35035-82.002002c-31.263263 10.25025-62.014014 15.375375-92.764765 15.375375-39.463463 0-75.851852-6.662663-108.652652-20.5005zM471.511512 742.630631c-65.601602 0-111.727728-28.188188-138.378379-84.564565-27.163163-56.376376-32.288288-131.203203-15.887888-223.967968C333.645646 341.333333 365.421421 266.506507 412.06006 210.13013c27.675676-33.825826 58.938939-57.401401 93.78979-70.726727 12.812813-2.562563 25.625626-3.587588 38.950951-3.587587 64.576577 0 110.19019 28.188188 136.840841 84.564564s31.775776 131.203203 15.375375 223.967968-47.663664 167.591592-94.302302 223.967968c-28.188188 33.825826-59.451451 57.401401-93.78979 70.726727-12.3003 2.562563-24.600601 3.587588-37.413413 3.587588z" fill="#ffb403" p-id="770"></path></svg>